<svg id="visual" viewBox="0 0 900 600" width="900" height="600" xmlns="http://www.w3.org/2000/svg" xmlns:xlink="http://www.w3.org/1999/xlink" version="1.1"><path d="M0 61L25 71C50 81 100 101 150 103C200 105 250 89 300 89C350 89 400 105 450 100C500 95 550 69 600 61C650 53 700 63 750 63C800 63 850 53 875 48L900 43L900 0L875 0C850 0 800 0 750 0C700 0 650 0 600 0C550 0 500 0 450 0C400 0 350 0 300 0C250 0 200 0 150 0C100 0 50 0 25 0L0 0Z" fill="#eabc25"></path><path d="M0 121L25 130C50 139 100 157 150 163C200 169 250 163 300 168C350 173 400 189 450 186C500 183 550 161 600 148C650 135 700 131 750 126C800 121 850 115 875 112L900 109L900 41L875 46C850 51 800 61 750 61C700 61 650 51 600 59C550 67 500 93 450 98C400 103 350 87 300 87C250 87 200 103 150 101C100 99 50 79 25 69L0 59Z" fill="#f6a332"></path><path d="M0 199L25 222C50 245 100 291 150 314C200 337 250 337 300 329C350 321 400 305 450 285C500 265 550 241 600 235C650 229 700 241 750 238C800 235 850 217 875 208L900 199L900 107L875 110C850 113 800 119 750 124C700 129 650 133 600 146C550 159 500 181 450 184C400 187 350 171 300 166C250 161 200 167 150 161C100 155 50 137 25 128L0 119Z" fill="#fb8b44"></path><path d="M0 361L25 370C50 379 100 397 150 411C200 425 250 435 300 428C350 421 400 397 450 384C500 371 550 369 600 372C650 375 700 383 750 379C800 375 850 359 875 351L900 343L900 197L875 206C850 215 800 233 750 236C700 239 650 227 600 233C550 239 500 263 450 283C400 303 350 319 300 327C250 335 200 335 150 312C100 289 50 243 25 220L0 197Z" fill="#f87557"></path><path d="M0 601L25 601C50 601 100 601 150 601C200 601 250 601 300 601C350 601 400 601 450 601C500 601 550 601 600 601C650 601 700 601 750 601C800 601 850 601 875 601L900 601L900 341L875 349C850 357 800 373 750 377C700 381 650 373 600 370C550 367 500 369 450 382C400 395 350 419 300 426C250 433 200 423 150 409C100 395 50 377 25 368L0 359Z" fill="#ed6369"></path></svg>